<?xml version="1.0" encoding="utf-8"?>
<!-- Generator: Adobe Illustrator 17.1.0, SVG Export Plug-In . SVG Version: 6.00 Build 0)  -->
<!DOCTYPE svg PUBLIC "-//W3C//DTD SVG 1.1//EN" "http://www.w3.org/Graphics/SVG/1.1/DTD/svg11.dtd">
<svg version="1.1" id="Слой_1" xmlns="http://www.w3.org/2000/svg" xmlns:xlink="http://www.w3.org/1999/xlink" x="0px" y="0px"
	 viewBox="0 0 49.7 48.3" enable-background="new 0 0 49.7 48.3" xml:space="preserve">
<g>
	<path fill="#00A13A" d="M2.3,23.7c-0.2,0-0.3-0.1-0.3-0.3v-4.9c0-0.2,0.1-0.3,0.3-0.3h18.9V21c0,1,0.8,1.9,1.9,1.9h3.6
		c1,0,1.9-0.8,1.9-1.9v-2.8h18.9c0.2,0,0.3,0.1,0.3,0.3v4.9c0,0.2-0.1,0.3-0.3,0.3H2.3L2.3,23.7z M42.6,43.7c-0.2,1.5-1.5,2.6-3,2.6
		H10.1c-1.5,0-2.8-1.1-3-2.6l-2.5-18h40.5L42.6,43.7L42.6,43.7z M23.2,2h3.4v18.9h-3.4V2L23.2,2z M47.5,16.3H28.5V1.9
		c0-1-0.8-1.9-1.9-1.9h-3.6c-1,0-1.9,0.8-1.9,1.9v14.4H2.3c-1.3,0-2.3,1-2.3,2.3v4.9c0,1.3,1,2.3,2.3,2.3h0.3L5.2,44
		c0.3,2.4,2.5,4.3,4.9,4.3h29.5c2.5,0,4.6-1.8,4.9-4.3l2.6-18.3h0.3c1.3,0,2.3-1,2.3-2.3v-4.9C49.7,17.3,48.7,16.3,47.5,16.3
		L47.5,16.3z"/>
	<path fill="#00A13A" d="M10.7,43.9c0.5,0,1-0.4,1-1V29c0-0.5-0.4-1-1-1c-0.5,0-1,0.4-1,1v13.9C9.7,43.5,10.2,43.9,10.7,43.9
		L10.7,43.9z"/>
	<path fill="#00A13A" d="M16.4,43.9c0.5,0,1-0.4,1-1V29c0-0.5-0.4-1-1-1c-0.5,0-1,0.4-1,1v13.9C15.4,43.5,15.8,43.9,16.4,43.9
		L16.4,43.9z"/>
	<path fill="#00A13A" d="M22,43.9c0.5,0,1-0.4,1-1V29c0-0.5-0.4-1-1-1c-0.5,0-1,0.4-1,1v13.9C21,43.5,21.5,43.9,22,43.9L22,43.9z"/>
	<path fill="#00A13A" d="M27.7,43.9c0.5,0,1-0.4,1-1V29c0-0.5-0.4-1-1-1c-0.5,0-1,0.4-1,1v13.9C26.7,43.5,27.2,43.9,27.7,43.9
		L27.7,43.9z"/>
	<path fill="#00A13A" d="M33.4,43.9c0.5,0,1-0.4,1-1V29c0-0.5-0.4-1-1-1c-0.5,0-1,0.4-1,1v13.9C32.4,43.5,32.8,43.9,33.4,43.9
		L33.4,43.9z"/>
	<path fill="#00A13A" d="M39,30.8c0.5,0,1-0.4,1-1V29c0-0.5-0.4-1-1-1c-0.5,0-1,0.4-1,1v0.8C38.1,30.4,38.5,30.8,39,30.8L39,30.8z"
		/>
	<path fill="#00A13A" d="M39,43.9c0.5,0,1-0.4,1-1v-9.3c0-0.5-0.4-1-1-1c-0.5,0-1,0.4-1,1v9.3C38.1,43.5,38.5,43.9,39,43.9L39,43.9z
		"/>
</g>
</svg>
