<?xml version="1.0" encoding="utf-8"?>
<!-- Generator: Adobe Illustrator 17.1.0, SVG Export Plug-In . SVG Version: 6.00 Build 0)  -->
<!DOCTYPE svg PUBLIC "-//W3C//DTD SVG 1.1//EN" "http://www.w3.org/Graphics/SVG/1.1/DTD/svg11.dtd">
<svg version="1.1" id="Слой_1" xmlns="http://www.w3.org/2000/svg" xmlns:xlink="http://www.w3.org/1999/xlink" x="0px" y="0px"
	 viewBox="0 0 27.7 37.5" enable-background="new 0 0 27.7 37.5" xml:space="preserve">
<path fill="#00A13A" d="M25.5,37.5H2.2c-1.2,0-2.2-1-2.2-2.2V2.2C0,1,1,0,2.2,0h23.3c1.2,0,2.2,1,2.2,2.2v33.1
	C27.7,36.5,26.7,37.5,25.5,37.5L25.5,37.5z M2.2,1.7c-0.3,0-0.5,0.2-0.5,0.5v33.1c0,0.3,0.2,0.5,0.5,0.5h23.3c0.3,0,0.5-0.2,0.5-0.5
	V2.2c0-0.3-0.2-0.5-0.5-0.5L2.2,1.7L2.2,1.7z M22.2,26.3c0-0.5-0.4-0.8-0.8-0.8h-9.8c-0.5,0-0.8,0.4-0.8,0.8s0.4,0.8,0.8,0.8h9.7
	C21.8,27.2,22.2,26.8,22.2,26.3L22.2,26.3z M22.2,31.4c0-0.5-0.4-0.8-0.8-0.8h-9.8c-0.5,0-0.8,0.4-0.8,0.8c0,0.5,0.4,0.8,0.8,0.8
	h9.7C21.8,32.2,22.2,31.8,22.2,31.4L22.2,31.4z M22.2,21.3c0-0.5-0.4-0.8-0.8-0.8h-9.8c-0.5,0-0.8,0.4-0.8,0.8
	c0,0.5,0.4,0.8,0.8,0.8h9.7C21.8,22.2,22.2,21.8,22.2,21.3L22.2,21.3z M22.2,16.4c0-0.5-0.4-0.8-0.8-0.8h-9.8
	c-0.5,0-0.8,0.4-0.8,0.8c0,0.5,0.4,0.8,0.8,0.8h9.7C21.8,17.2,22.2,16.8,22.2,16.4L22.2,16.4z M22.1,11.4c0-0.5-0.4-0.8-0.8-0.8
	h-9.7c-0.5,0-0.8,0.4-0.8,0.8c0,0.5,0.4,0.8,0.8,0.8h9.7C21.7,12.3,22.1,11.9,22.1,11.4L22.1,11.4z M22.1,6.5c0-0.5-0.4-0.8-0.8-0.8
	h-9.7c-0.5,0-0.8,0.4-0.8,0.8c0,0.5,0.4,0.8,0.8,0.8h9.7C21.7,7.3,22.1,6.9,22.1,6.5L22.1,6.5z M6.4,7.9l2.1-2.1
	c0.3-0.3,0.3-0.9,0-1.2c-0.3-0.3-0.9-0.3-1.2,0L5.8,6.2L5.5,5.9c-0.3-0.3-0.9-0.3-1.2,0C4,6.2,4,6.8,4.4,7.1l0.9,0.9
	c0.2,0.2,0.4,0.2,0.6,0.2C6,8.2,6.2,8.1,6.4,7.9L6.4,7.9z M6.4,13.1L8.5,11c0.3-0.3,0.3-0.9,0-1.2c-0.3-0.3-0.9-0.3-1.2,0l-1.5,1.5
	L5.5,11c-0.3-0.3-0.9-0.3-1.2,0c-0.3,0.3-0.3,0.9,0,1.2l0.9,0.9c0.1,0.1,0.4,0.2,0.6,0.2C6,13.3,6.2,13.2,6.4,13.1L6.4,13.1z
	 M6.4,18l2.1-2.1c0.3-0.3,0.3-0.9,0-1.2c-0.3-0.3-0.9-0.3-1.2,0l-1.5,1.5L5.5,16c-0.3-0.3-0.9-0.3-1.2,0c-0.3,0.3-0.3,0.9,0,1.2
	L5.2,18c0.1,0.1,0.4,0.2,0.6,0.2C6,18.3,6.2,18.2,6.4,18L6.4,18z M6.4,23l2.1-2.1c0.3-0.3,0.3-0.9,0-1.2c-0.3-0.3-0.9-0.3-1.2,0
	l-1.5,1.5l-0.3-0.3c-0.3-0.3-0.9-0.3-1.2,0c-0.3,0.3-0.3,0.9,0,1.2L5.2,23c0.1,0.1,0.4,0.2,0.6,0.2C6,23.3,6.2,23.2,6.4,23L6.4,23z
	 M6.4,28l2.1-2.1c0.3-0.3,0.3-0.9,0-1.2c-0.3-0.3-0.9-0.3-1.2,0l-1.5,1.5l-0.3-0.3c-0.3-0.3-0.9-0.3-1.2,0c-0.3,0.3-0.3,0.9,0,1.2
	L5.2,28c0.1,0.1,0.4,0.2,0.6,0.2C6,28.2,6.2,28.1,6.4,28L6.4,28z M6.4,33l2.1-2.1c0.3-0.3,0.3-0.9,0-1.2c-0.3-0.3-0.9-0.3-1.2,0
	l-1.5,1.5l-0.3-0.3c-0.3-0.3-0.9-0.3-1.2,0c-0.3,0.3-0.3,0.9,0,1.2L5.2,33c0.2,0.2,0.4,0.2,0.6,0.2C6,33.2,6.2,33.2,6.4,33L6.4,33z
	 M6.4,33"/>
</svg>
