<?xml version="1.0" encoding="utf-8"?>
<!-- Generator: Adobe Illustrator 17.1.0, SVG Export Plug-In . SVG Version: 6.00 Build 0)  -->
<!DOCTYPE svg PUBLIC "-//W3C//DTD SVG 1.1//EN" "http://www.w3.org/Graphics/SVG/1.1/DTD/svg11.dtd">
<svg version="1.1" id="Слой_1" xmlns="http://www.w3.org/2000/svg" xmlns:xlink="http://www.w3.org/1999/xlink" x="0px" y="0px"
	 viewBox="0 0 26.2 26.2" enable-background="new 0 0 26.2 26.2" xml:space="preserve">
<g>
	<path fill="#00A13A" d="M24.9,10.4l-1.8-0.3c-0.2-0.6-0.4-1.2-0.7-1.8l1.1-1.5c0.5-0.6,0.4-1.5-0.2-2.1L21.6,3
		c-0.3-0.3-0.7-0.5-1.1-0.5c-0.3,0-0.7,0.1-0.9,0.3L18,3.9c-0.6-0.3-1.2-0.6-1.9-0.8l-0.3-1.8C15.7,0.6,15,0,14.2,0h-2.3
		c-0.8,0-1.5,0.6-1.6,1.4L10,3.2C9.4,3.4,8.8,3.7,8.2,4L6.7,2.9C6.4,2.7,6.1,2.6,5.8,2.6c-0.4,0-0.8,0.2-1.1,0.5L3,4.7
		C2.4,5.3,2.3,6.1,2.8,6.8l1.1,1.5c-0.3,0.6-0.5,1.2-0.7,1.8l-1.8,0.3C0.6,10.6,0,11.2,0,12v2.3c0,0.8,0.6,1.5,1.4,1.6l1.9,0.3
		C3.4,16.9,3.7,17.5,4,18l-1.1,1.5c-0.5,0.6-0.4,1.5,0.2,2.1l1.6,1.6c0.3,0.3,0.7,0.5,1.1,0.5c0.3,0,0.7-0.1,0.9-0.3l1.5-1.1
		c0.6,0.3,1.1,0.5,1.7,0.7l0.3,1.8c0.1,0.8,0.8,1.4,1.6,1.4h2.3c0.8,0,1.5-0.6,1.6-1.4l0.3-1.8c0.6-0.2,1.2-0.4,1.8-0.7l1.5,1.1
		c0.3,0.2,0.6,0.3,0.9,0.3c0.4,0,0.8-0.2,1.1-0.5l1.6-1.6c0.6-0.6,0.6-1.4,0.2-2.1L22.3,18c0.3-0.6,0.6-1.2,0.7-1.8l1.8-0.3
		c0.8-0.1,1.4-0.8,1.4-1.6V12C26.3,11.2,25.7,10.5,24.9,10.4L24.9,10.4z M24.8,14.3c0,0.1,0,0.1-0.1,0.1l-2.3,0.4
		c-0.3,0-0.5,0.3-0.6,0.5c-0.2,0.8-0.5,1.6-1,2.3c-0.1,0.3-0.1,0.6,0,0.8l1.4,1.9c0,0.1,0,0.1,0,0.2l-1.6,1.6c0,0-0.1,0-0.1,0
		c0,0-0.1,0-0.1,0l-1.9-1.4c-0.2-0.2-0.6-0.2-0.8,0c-0.7,0.4-1.5,0.7-2.3,1c-0.3,0.1-0.5,0.3-0.5,0.6l-0.4,2.3
		c0,0.1-0.1,0.1-0.1,0.1H12c-0.1,0-0.1,0-0.1-0.1l-0.4-2.3c0-0.3-0.3-0.5-0.5-0.6c-0.8-0.2-1.5-0.5-2.2-0.9
		c-0.1-0.1-0.2-0.1-0.4-0.1c-0.1,0-0.3,0-0.4,0.1l-1.9,1.4c0,0-0.1,0-0.1,0c0,0-0.1,0-0.1,0l-1.6-1.6c0,0-0.1-0.1,0-0.2l1.3-1.9
		c0.2-0.2,0.2-0.6,0-0.8c-0.4-0.7-0.8-1.5-1-2.3c-0.1-0.3-0.3-0.5-0.6-0.5l-2.3-0.4c-0.1,0-0.1-0.1-0.1-0.1V12c0-0.1,0-0.1,0.1-0.1
		l2.3-0.4c0.3,0,0.5-0.3,0.6-0.5C4.7,10.1,5,9.4,5.4,8.6c0.1-0.3,0.1-0.6,0-0.8L4,5.9c0-0.1,0-0.1,0-0.2l1.6-1.6c0,0,0.1,0,0.1,0
		c0,0,0.1,0,0.1,0l1.9,1.3c0.2,0.2,0.6,0.2,0.8,0c0.7-0.4,1.5-0.8,2.3-1c0.3-0.1,0.5-0.3,0.5-0.6l0.4-2.3c0-0.1,0.1-0.1,0.1-0.1h2.3
		c0.1,0,0.1,0,0.1,0.1l0.4,2.3c0,0.3,0.3,0.5,0.5,0.6c0.8,0.2,1.6,0.5,2.4,1c0.3,0.1,0.6,0.1,0.8,0l1.9-1.4c0,0,0.1,0,0.1,0
		c0,0,0.1,0,0.1,0l1.6,1.6c0,0,0.1,0.1,0,0.2l-1.4,1.9c-0.2,0.2-0.2,0.6,0,0.8c0.4,0.7,0.7,1.5,1,2.3c0.1,0.3,0.3,0.5,0.6,0.5
		l2.3,0.4c0.1,0,0.1,0.1,0.1,0.1L24.8,14.3L24.8,14.3z M24.8,14.3"/>
	<path fill="#00A13A" d="M13.1,7.5c-3.1,0-5.7,2.5-5.7,5.7c0,3.1,2.5,5.7,5.7,5.7c3.1,0,5.7-2.5,5.7-5.7C18.8,10,16.2,7.5,13.1,7.5
		L13.1,7.5z M13.1,17.3c-2.3,0-4.2-1.9-4.2-4.2c0-2.3,1.9-4.2,4.2-4.2c2.3,0,4.2,1.9,4.2,4.2C17.3,15.4,15.4,17.3,13.1,17.3
		L13.1,17.3z M13.1,17.3"/>
</g>
</svg>
