<?xml version="1.0" encoding="utf-8"?>
<!-- Generator: Adobe Illustrator 17.1.0, SVG Export Plug-In . SVG Version: 6.00 Build 0)  -->
<!DOCTYPE svg PUBLIC "-//W3C//DTD SVG 1.1//EN" "http://www.w3.org/Graphics/SVG/1.1/DTD/svg11.dtd">
<svg version="1.1" id="Слой_1" xmlns="http://www.w3.org/2000/svg" xmlns:xlink="http://www.w3.org/1999/xlink" x="0px" y="0px"
	 viewBox="0 0 94.3 95.1" enable-background="new 0 0 94.3 95.1" xml:space="preserve">
<path fill="#00A13A" d="M92.2,95.1c-0.9,0-1.7-0.5-2-1.4l-5.5-13.7c-2.8-6.9-6-10.4-10.5-11.2L73,74.3l1.6,14.2
	c0.1,0.7-0.2,1.5-0.8,1.9l-3.5,2.8c-0.4,0.3-0.9,0.5-1.4,0.5h-1.3c-0.5,0-1-0.2-1.4-0.5l-3.5-2.8c-0.6-0.5-0.9-1.2-0.8-1.9l1.6-14.2
	l-1.1-5.5c-4.5,0.8-7.7,4.3-10.5,11.2l-5.6,13.7c-0.5,1.1-1.7,1.7-2.9,1.2c-1.1-0.5-1.7-1.7-1.2-2.9l5.6-13.7
	c2.4-5.9,6.7-13.8,16.1-14.2c0.1,0,0.2,0,0.3,0h8.3c0.1,0,0.2,0,0.3,0c9.4,0.4,13.7,8.2,16.1,14.2l5.5,13.7c0.4,1.1-0.1,2.4-1.2,2.8
	C92.7,95.1,92.4,95.1,92.2,95.1L92.2,95.1z M66.4,87.8l1.8,1.5l1.8-1.5l-1.3-11.4h-1.1L66.4,87.8z M67.5,72H69l0.7-3.3h-2.9L67.5,72
	z M2.2,95.1c-0.3,0-0.6-0.1-0.8-0.2c-1.1-0.5-1.7-1.7-1.2-2.9l5.5-13.5c2.4-6,6.8-14,16.6-14h7.3c5.3,0,9.6,2.3,12.9,7
	c0.1,0.1,0.3,0.4,0.6,0.8c1,1.4,1.3,1.8,1.4,1.9c0.7,1,0.4,2.4-0.6,3c-1,0.7-2.4,0.4-3-0.6c-0.1-0.2-0.9-1.2-1.3-1.8
	c-0.3-0.4-0.6-0.8-0.6-0.9c-1.5-2.1-3.2-3.6-5.2-4.4l-6,8.2c-0.4,0.6-1.1,0.9-1.8,0.9c-0.7,0-1.4-0.3-1.8-0.9l-6-8.2
	c-3.4,1.4-6,4.7-8.4,10.5L4.2,93.8C3.9,94.6,3.1,95.1,2.2,95.1L2.2,95.1z M22.9,69l2.9,4l2.9-4H22.9z M34.7,95.1H11.4
	c-1.2,0-2.2-1-2.2-2.2c0-1.2,1-2.2,2.2-2.2h23.3c1.2,0,2.2,1,2.2,2.2C36.9,94.2,35.9,95.1,34.7,95.1L34.7,95.1z M78.2,79.2
	c-1.2,0-2.2-1-2.2-2.2v-0.3c0-1.2,1-2.2,2.2-2.2c1.2,0,2.2,1,2.2,2.2V77C80.4,78.2,79.4,79.2,78.2,79.2L78.2,79.2z M25.8,61.4
	c-6.1,0-11.1-5-11.1-11.1c0-5.1,3.4-9.3,8-10.7c0,0,0,0,0.1,0c0.7-0.2,1.5-0.3,2.2-0.4c0,0,0,0,0,0c0,0,0,0,0,0c0,0,0,0,0,0
	c0,0,0,0,0,0c0,0,0,0,0,0c0,0,0,0,0,0c0,0,0,0,0,0c0,0,0.1,0,0.1,0h0l0,0c0,0,0,0,0,0c0,0,0,0,0,0h0c0,0,0,0,0,0c0,0,0,0,0,0
	c0,0,0,0,0,0c0,0,0,0,0,0c0,0,0,0,0,0c0,0,0,0,0,0c0.1,0,0.3,0,0.4,0c0,0,0,0,0,0h0c0,0,0,0,0,0c0,0,0,0,0,0c0,0,0,0,0,0h0
	c5.4,0,10,4,10.9,9.3c0.1,0.6,0.2,1.2,0.2,1.8C37,56.5,32,61.4,25.8,61.4L25.8,61.4z M21.9,44.9c-1.7,1.2-2.8,3.2-2.8,5.5
	c0,3.7,3,6.7,6.7,6.7c3.1,0,5.8-2.2,6.5-5.1C27.6,52,23.5,49.1,21.9,44.9L21.9,44.9z M26.1,43.6c1,2.3,3.3,3.9,5.9,4
	C31,45.3,28.7,43.7,26.1,43.6L26.1,43.6z M68.2,60.9c-6.2,0-11.3-5-11.3-11.3c0-6.2,5-11.3,11.3-11.3c0.7,0,1.5,0.1,2.2,0.2
	c0,0,0.1,0,0.1,0c5.1,1.1,8.9,5.6,8.9,11C79.5,55.9,74.4,60.9,68.2,60.9L68.2,60.9z M64.3,44c-1.8,1.2-3,3.3-3,5.7
	c0,3.8,3.1,6.9,6.9,6.9c3.8,0,6.9-3.1,6.9-6.9c0-2.8-1.7-5.2-4.1-6.3c-0.9,1.2-2.1,2.2-3.4,2.9c-1.1,0.6-2.4,0.2-3-0.8
	C64.3,45,64.3,44.5,64.3,44L64.3,44z M16.3,38c-0.4,0-0.8-0.1-1.1-0.3c-0.7-0.4-1.1-1.1-1.1-1.9V16.1c0-3.8,3.1-7,7-7h7.8
	c1.2,0,2.2,1,2.2,2.2c0,1.2-1,2.2-2.2,2.2h-7.8c-1.4,0-2.6,1.2-2.6,2.6v16l3-1.7c0.3-0.2,0.7-0.3,1.1-0.3h19c1.2,0,2.2,1,2.2,2.2
	c0,1.2-1,2.2-2.2,2.2H23.2l-5.8,3.2C17.1,37.9,16.7,38,16.3,38L16.3,38z M68.2,33.5c-0.6,0-1.2-0.2-1.6-0.7l-6.7-7.4H42.2
	c-3.8,0-7-3.1-7-7V7c0-3.8,3.1-7,7-7h21.3c3.8,0,7,3.1,7,7v24.3c0,0.9-0.6,1.7-1.4,2C68.8,33.4,68.5,33.5,68.2,33.5L68.2,33.5z
	 M42.2,4.4c-1.4,0-2.6,1.2-2.6,2.6v11.5c0,1.4,1.2,2.6,2.6,2.6h18.7c0.6,0,1.2,0.3,1.6,0.7l3.6,3.9V7c0-1.4-1.2-2.6-2.6-2.6H42.2z
	 M28.4,21.8h-4c-1.2,0-2.2-1-2.2-2.2c0-1.2,1-2.2,2.2-2.2h4c1.2,0,2.2,1,2.2,2.2C30.6,20.8,29.6,21.8,28.4,21.8L28.4,21.8z
	 M59.6,12.8h-9c-1.2,0-2.2-1-2.2-2.2c0-1.2,1-2.2,2.2-2.2h9c1.2,0,2.2,1,2.2,2.2C61.8,11.8,60.9,12.8,59.6,12.8L59.6,12.8z
	 M59.6,12.8"/>
</svg>
