<?xml version="1.0" encoding="utf-8"?>
<!-- Generator: Adobe Illustrator 17.1.0, SVG Export Plug-In . SVG Version: 6.00 Build 0)  -->
<!DOCTYPE svg PUBLIC "-//W3C//DTD SVG 1.1//EN" "http://www.w3.org/Graphics/SVG/1.1/DTD/svg11.dtd">
<svg version="1.1" id="Слой_1" xmlns="http://www.w3.org/2000/svg" xmlns:xlink="http://www.w3.org/1999/xlink" x="0px" y="0px"
	 viewBox="0 0 77 98" enable-background="new 0 0 77 98" xml:space="preserve">
<g>
	<path fill="#00A13A" stroke="#00A13A" stroke-miterlimit="10" d="M71.8,0.5H5.2c-2.6,0-4.7,2.1-4.7,4.7v87.6c0,2.6,2.1,4.7,4.7,4.7
		h66.6c2.6,0,4.7-2.1,4.7-4.7V5.2C76.5,2.6,74.4,0.5,71.8,0.5L71.8,0.5z M73.3,92.8c0,0.8-0.7,1.5-1.5,1.5H5.2
		c-0.8,0-1.5-0.7-1.5-1.5V5.2c0-0.8,0.7-1.5,1.5-1.5h66.6c0.8,0,1.5,0.7,1.5,1.5V92.8z M73.3,92.8"/>
	<path fill="#00A13A" stroke="#00A13A" stroke-miterlimit="10" d="M8.6,89.4h17.8V71.6H8.6V89.4z M11.8,74.9h11.3v11.3H11.8V74.9z
		 M11.8,74.9"/>
	<path fill="#00A13A" stroke="#00A13A" stroke-miterlimit="10" d="M29.6,89.4h17.8V71.6H29.6V89.4z M32.8,74.9h11.3v11.3H32.8V74.9z
		 M32.8,74.9"/>
	<path fill="#00A13A" stroke="#00A13A" stroke-miterlimit="10" d="M50.6,89.4h17.8V50.6H50.6V89.4z M53.8,53.8h11.3v32.3H53.8V53.8z
		 M53.8,53.8"/>
	<path fill="#00A13A" stroke="#00A13A" stroke-miterlimit="10" d="M8.6,68.4h17.8V50.6H8.6V68.4z M11.8,53.8h11.3v11.3H11.8V53.8z
		 M11.8,53.8"/>
	<path fill="#00A13A" stroke="#00A13A" stroke-miterlimit="10" d="M29.6,68.4h17.8V50.6H29.6V68.4z M32.8,53.8h11.3v11.3H32.8V53.8z
		 M32.8,53.8"/>
	<path fill="#00A13A" stroke="#00A13A" stroke-miterlimit="10" d="M8.6,47.4h17.8V29.6H8.6V47.4z M11.8,32.8h11.3v11.3H11.8V32.8z
		 M11.8,32.8"/>
	<path fill="#00A13A" stroke="#00A13A" stroke-miterlimit="10" d="M29.6,47.4h17.8V29.6H29.6V47.4z M32.8,32.8h11.3v11.3H32.8V32.8z
		 M32.8,32.8"/>
	<path fill="#00A13A" stroke="#00A13A" stroke-miterlimit="10" d="M50.6,47.4h17.8V29.6H50.6V47.4z M53.8,32.8h11.3v11.3H53.8V32.8z
		 M53.8,32.8"/>
	<path fill="#00A13A" stroke="#00A13A" stroke-miterlimit="10" d="M8.6,24.8h59.8V8.6H8.6V24.8z M11.8,11.8h53.3v9.7H11.8V11.8z
		 M11.8,11.8"/>
</g>
</svg>
