<?xml version="1.0" encoding="utf-8"?>
<!-- Generator: Adobe Illustrator 17.1.0, SVG Export Plug-In . SVG Version: 6.00 Build 0)  -->
<!DOCTYPE svg PUBLIC "-//W3C//DTD SVG 1.1//EN" "http://www.w3.org/Graphics/SVG/1.1/DTD/svg11.dtd">
<svg version="1.1" id="Слой_1" xmlns="http://www.w3.org/2000/svg" xmlns:xlink="http://www.w3.org/1999/xlink" x="0px" y="0px"
	 viewBox="0 0 50 50" enable-background="new 0 0 50 50" xml:space="preserve">
<g>
	<path fill="#3C3C3C" d="M25,0C11.2,0,0,11.2,0,25s11.2,25,25,25c13.8,0,25-11.2,25-25S38.8,0,25,0L25,0z M25,48.1
		C12.3,48.1,1.9,37.7,1.9,25C1.9,12.3,12.3,1.9,25,1.9c12.7,0,23.1,10.4,23.1,23.1C48.1,37.7,37.7,48.1,25,48.1L25,48.1z M25,48.1"
		/>
	<path fill="#3C3C3C" d="M34.3,15.7c-0.4-0.4-1-0.4-1.4,0l-8,8l-8-8c-0.4-0.4-1-0.4-1.4,0c-0.4,0.4-0.4,1,0,1.4l8,8l-8,8
		c-0.4,0.4-0.4,1,0,1.4c0.2,0.2,0.4,0.3,0.7,0.3c0.2,0,0.5-0.1,0.7-0.3l8-8l8,8c0.2,0.2,0.4,0.3,0.7,0.3c0.2,0,0.5-0.1,0.7-0.3
		c0.4-0.4,0.4-1,0-1.4l-8-8l8-8C34.7,16.6,34.7,16,34.3,15.7L34.3,15.7z M34.3,15.7"/>
</g>
</svg>
