<?xml version="1.0" encoding="utf-8"?>
<!-- Generator: Adobe Illustrator 17.1.0, SVG Export Plug-In . SVG Version: 6.00 Build 0)  -->
<!DOCTYPE svg PUBLIC "-//W3C//DTD SVG 1.1//EN" "http://www.w3.org/Graphics/SVG/1.1/DTD/svg11.dtd">
<svg version="1.1" id="Слой_1" xmlns="http://www.w3.org/2000/svg" xmlns:xlink="http://www.w3.org/1999/xlink" x="0px" y="0px"
	 viewBox="0 0 128.4 87.6" enable-background="new 0 0 128.4 87.6" xml:space="preserve">
<g>
	<path fill="#00A13A" d="M105,64c-3.1,0-6.1,1.2-8.4,3.5c-2.3,2.3-3.5,5.2-3.5,8.3c0,3.1,1.2,6.1,3.5,8.3c2.3,2.2,5.2,3.5,8.4,3.5
		c6.4,0,11.7-5.3,11.7-11.8C116.7,69.3,111.4,64,105,64L105,64z M105,82.3c-3.6,0-6.6-3-6.6-6.5c0-3.6,3-6.5,6.6-6.5
		c3.6,0,6.4,2.9,6.4,6.5C111.4,79.4,108.6,82.3,105,82.3L105,82.3z M105,82.3"/>
	<path fill="#00A13A" d="M108,24.8c-0.5-0.4-1.1-0.7-1.8-0.7H92.9c-1.4,0-2.6,1.2-2.6,2.6v21.4c0,1.4,1.2,2.6,2.6,2.6h21.3
		c1.4,0,2.6-1.2,2.6-2.6V33.8c0-0.7-0.3-1.4-0.9-1.9L108,24.8z M111.5,45.6H95.5V29.3h9.8l6.3,5.6V45.6z M111.5,45.6"/>
	<path fill="#00A13A" d="M41.1,64c-3.1,0-6.1,1.2-8.4,3.5c-2.2,2.3-3.5,5.2-3.5,8.3c0,3.1,1.2,6.1,3.5,8.3c2.3,2.2,5.2,3.5,8.4,3.5
		c6.4,0,11.7-5.3,11.7-11.8C52.8,69.3,47.6,64,41.1,64L41.1,64z M41.1,82.3c-3.6,0-6.6-3-6.6-6.5c0-3.6,3-6.5,6.6-6.5
		c3.6,0,6.4,2.9,6.4,6.5C47.6,79.4,44.7,82.3,41.1,82.3L41.1,82.3z M41.1,82.3"/>
	<path fill="#00A13A" d="M23.7,67.2h-5.3v-7c0-1.4-1.2-2.6-2.6-2.6c-1.4,0-2.6,1.2-2.6,2.6v9.6c0,1.4,1.2,2.6,2.6,2.6h7.9
		c1.4,0,2.6-1.2,2.6-2.6C26.3,68.4,25.1,67.2,23.7,67.2L23.7,67.2z M23.7,67.2"/>
	<path fill="#00A13A" d="M37,53c0-1.4-1.2-2.6-2.6-2.6H2.6C1.2,50.4,0,51.6,0,53c0,1.4,1.2,2.6,2.6,2.6h31.7
		C35.8,55.6,37,54.5,37,53L37,53z M37,53"/>
	<path fill="#00A13A" d="M7.9,43.5l31.7,0.2c1.4,0,2.6-1.2,2.6-2.6c0-1.5-1.2-2.6-2.6-2.6L8,38.3h0c-1.4,0-2.6,1.2-2.6,2.6
		C5.3,42.4,6.5,43.5,7.9,43.5L7.9,43.5z M7.9,43.5"/>
	<path fill="#00A13A" d="M13.3,31.7H45c1.4,0,2.6-1.2,2.6-2.6c0-1.4-1.2-2.6-2.6-2.6H13.3c-1.4,0-2.6,1.2-2.6,2.6
		C10.6,30.5,11.8,31.7,13.3,31.7L13.3,31.7z M13.3,31.7"/>
	<path fill="#00A13A" d="M127.5,28.1l-18.7-15.5c-0.5-0.4-1-0.6-1.7-0.6h-22V2.6c0-1.4-1.2-2.6-2.6-2.6H15.8c-1.4,0-2.6,1.2-2.6,2.6
		v19.1c0,1.4,1.2,2.6,2.6,2.6c1.4,0,2.6-1.2,2.6-2.6V5.2h61.4v62H58.4c-1.4,0-2.6,1.2-2.6,2.6c0,1.4,1.2,2.6,2.6,2.6h31.9
		c1.4,0,2.6-1.2,2.6-2.6c0-1.4-1.2-2.6-2.6-2.6h-5.3v-50h21.1l17.1,14.1L123,67.2h-2.7c-1.4,0-2.6,1.2-2.6,2.6
		c0,1.4,1.2,2.6,2.6,2.6h5.3c1.4,0,2.6-1.2,2.6-2.6l0.2-39.7C128.4,29.4,128.1,28.6,127.5,28.1L127.5,28.1z M127.5,28.1"/>
</g>
</svg>
