<?xml version="1.0" encoding="utf-8"?>
<!-- Generator: Adobe Illustrator 17.1.0, SVG Export Plug-In . SVG Version: 6.00 Build 0)  -->
<!DOCTYPE svg PUBLIC "-//W3C//DTD SVG 1.1//EN" "http://www.w3.org/Graphics/SVG/1.1/DTD/svg11.dtd">
<svg version="1.1" id="Слой_1" xmlns="http://www.w3.org/2000/svg" xmlns:xlink="http://www.w3.org/1999/xlink" x="0px" y="0px"
	 viewBox="0 0 30.9 35.3" enable-background="new 0 0 30.9 35.3" xml:space="preserve">
<g>
	<path fill="#00A13A" d="M23.4,13.2h-4.7l-3.3,4.9l-3.3-4.9H7.5l5.6,8.4l-6.3,9.3h9v-3.2h-2.1l1.7-2.6l3.8,5.7h4.8l-6.3-9.3
		L23.4,13.2z M29,6.9L24,2c-1.1-1.1-3.2-2-4.7-2H2.8C1.2,0,0,1.2,0,2.8v29.8c0,1.5,1.2,2.8,2.8,2.8h25.4c1.5,0,2.8-1.2,2.8-2.8v-21
		C30.9,10.1,30,8,29,6.9L29,6.9z M27.4,8.4c0.1,0.1,0.2,0.2,0.3,0.4h-5.6V3.2c0.1,0.1,0.3,0.2,0.4,0.3L27.4,8.4z M28.7,32.6
		c0,0.3-0.3,0.6-0.6,0.6H2.8c-0.3,0-0.6-0.3-0.6-0.6V2.8c0-0.3,0.3-0.6,0.6-0.6h16.6c0.2,0,0.4,0,0.6,0.1V11h8.8
		c0,0.2,0.1,0.4,0.1,0.6V32.6z M28.7,32.6"/>
</g>
</svg>
