<?xml version="1.0" encoding="utf-8"?>
<!-- Generator: Adobe Illustrator 17.1.0, SVG Export Plug-In . SVG Version: 6.00 Build 0)  -->
<!DOCTYPE svg PUBLIC "-//W3C//DTD SVG 1.1//EN" "http://www.w3.org/Graphics/SVG/1.1/DTD/svg11.dtd">
<svg version="1.1" id="Слой_1" xmlns="http://www.w3.org/2000/svg" xmlns:xlink="http://www.w3.org/1999/xlink" x="0px" y="0px"
	 viewBox="0 0 28.2 27" enable-background="new 0 0 28.2 27" xml:space="preserve">
<path fill-rule="evenodd" clip-rule="evenodd" fill="#455A64" d="M19,13.4c-0.2-3.1-2.5-5-5.3-5h-0.1c-3.2,0-5,2.5-5,5.4
	c0,3.2,2.2,5.3,5,5.3c3.2,0,5.2-2.3,5.4-5.1L19,13.4L19,13.4z M13.6,5.6c2.2,0,4.2,1,5.7,2.4v0c0-0.7,0.5-1.3,1.2-1.3l0.2,0
	c1,0,1.3,1,1.3,1.3l0,11.1c-0.1,0.7,0.8,1.1,1.2,0.6C24.8,18,27,10.4,21.9,6C17.3,1.9,11,2.6,7.6,4.9c-3.6,2.5-5.8,7.9-3.6,13
	c2.4,5.6,9.3,7.2,13.4,5.6c2.1-0.8,3,2,0.9,2.9C15,27.7,6,27.6,1.7,20.3C-1.1,15.3-1,6.6,6.6,2.1c5.8-3.5,13.5-2.5,18.1,2.3
	c4.8,5,4.5,14.5-0.2,18.2c-2.1,1.7-5.3,0-5.3-2.4l0-0.8c-1.5,1.5-3.5,2.3-5.6,2.3c-4.3,0-8-3.7-8-8C5.6,9.4,9.3,5.6,13.6,5.6
	L13.6,5.6L13.6,5.6L13.6,5.6L13.6,5.6z"/>
</svg>
