<?xml version="1.0" encoding="utf-8"?>
<!-- Generator: Adobe Illustrator 17.1.0, SVG Export Plug-In . SVG Version: 6.00 Build 0)  -->
<!DOCTYPE svg PUBLIC "-//W3C//DTD SVG 1.1//EN" "http://www.w3.org/Graphics/SVG/1.1/DTD/svg11.dtd">
<svg version="1.1" id="Слой_1" xmlns="http://www.w3.org/2000/svg" xmlns:xlink="http://www.w3.org/1999/xlink" x="0px" y="0px"
	 viewBox="0 0 12.2 21" enable-background="new 0 0 12.2 21" xml:space="preserve">
<g>
	<path fill="#455A64" d="M6.1,10.8c3,0,5.4-2.4,5.4-5.4c0-3-2.4-5.4-5.4-5.4c-3,0-5.4,2.4-5.4,5.4C0.7,8.4,3.1,10.8,6.1,10.8
		 M6.1,3.2c1.2,0,2.2,1,2.2,2.2c0,1.2-1,2.2-2.2,2.2c-1.2,0-2.2-1-2.2-2.2C3.8,4.2,4.8,3.2,6.1,3.2L6.1,3.2z"/>
	<path fill="#455A64" d="M8.3,15.3c1.1-0.3,2.2-0.7,3.1-1.3c0.7-0.5,1-1.4,0.5-2.2c-0.5-0.7-1.4-1-2.2-0.5l0,0
		c-2.2,1.4-5.1,1.4-7.3,0c-0.7-0.5-1.7-0.2-2.2,0.5c0,0,0,0,0,0c-0.5,0.7-0.2,1.7,0.5,2.2c1,0.6,2,1,3.1,1.3l-3,3
		c-0.6,0.6-0.6,1.6,0,2.2c0.6,0.6,1.6,0.6,2.2,0l0,0l3-3l3,3c0.6,0.6,1.6,0.6,2.2,0c0,0,0,0,0,0c0.6-0.6,0.6-1.6,0-2.2c0,0,0,0,0,0
		L8.3,15.3"/>
</g>
</svg>
