<?xml version="1.0" encoding="utf-8"?>
<!-- Generator: Adobe Illustrator 17.1.0, SVG Export Plug-In . SVG Version: 6.00 Build 0)  -->
<!DOCTYPE svg PUBLIC "-//W3C//DTD SVG 1.1//EN" "http://www.w3.org/Graphics/SVG/1.1/DTD/svg11.dtd">
<svg version="1.1" id="Слой_1" xmlns="http://www.w3.org/2000/svg" xmlns:xlink="http://www.w3.org/1999/xlink" x="0px" y="0px"
	 viewBox="0 0 25.7 36.5" enable-background="new 0 0 25.7 36.5" xml:space="preserve">
<g>
	<rect x="4.1" y="29.8" fill="#00A13A" width="17.6" height="1.3"/>
	<rect x="4.1" y="9.5" fill="#00A13A" width="9.5" height="1.3"/>
	<rect x="4.1" y="25.7" fill="#00A13A" width="17.6" height="1.4"/>
	<rect x="4.1" y="5.4" fill="#00A13A" width="9.5" height="1.4"/>
	<path fill="#00A13A" d="M17.6,0H2.7C1.2,0,0,1.2,0,2.7v31.1c0,1.5,1.2,2.7,2.7,2.7H23c1.5,0,2.7-1.2,2.7-2.7V9.5L17.6,0z M17.6,2
		l6.4,7.4h-5c-0.7,0-1.4-0.7-1.4-1.4V2z M24.3,33.8c0,0.7-0.5,1.4-1.3,1.4H2.7c-0.7,0-1.4-0.5-1.4-1.4V2.7c0-0.7,0.5-1.4,1.4-1.4
		h13.5v6.8c0,1.5,1.2,2.7,2.7,2.7h5.4V33.8z M24.3,33.8"/>
	<rect x="4.1" y="21.6" fill="#00A13A" width="17.6" height="1.4"/>
	<rect x="4.1" y="13.5" fill="#00A13A" width="17.6" height="1.4"/>
	<rect x="4.1" y="17.6" fill="#00A13A" width="17.6" height="1.4"/>
</g>
</svg>
