<?xml version="1.0" encoding="utf-8"?>
<!-- Generator: Adobe Illustrator 17.1.0, SVG Export Plug-In . SVG Version: 6.00 Build 0)  -->
<!DOCTYPE svg PUBLIC "-//W3C//DTD SVG 1.1//EN" "http://www.w3.org/Graphics/SVG/1.1/DTD/svg11.dtd">
<svg version="1.1" id="Слой_1" xmlns="http://www.w3.org/2000/svg" xmlns:xlink="http://www.w3.org/1999/xlink" x="0px" y="0px"
	 viewBox="0 0 31.2 35.7" enable-background="new 0 0 31.2 35.7" xml:space="preserve">
<g>
	<path fill="#FFFFFF" d="M27.1,20.5c-0.5-0.5-1.5-0.7-3.1-0.7c-1.1,0-2.4,0.1-3.8,0.3c-0.6-0.4-1.2-0.7-1.7-1.2
		c-1.3-1.3-2.5-3-3.2-4.9c0-0.2,0.1-0.3,0.1-0.5c0,0,0.8-4.3,0.6-5.7c0-0.2,0-0.3-0.1-0.4l-0.1-0.2c-0.2-0.5-0.6-1-1.2-0.9l-0.4,0
		l0,0c-0.7,0-1.3,0.4-1.4,0.9c-0.5,1.7,0,4.2,0.9,7.5l-0.2,0.5c-0.6,1.5-1.4,3-2.1,4.3l-0.1,0.2c-0.7,1.4-1.4,2.6-1.9,3.6l-0.6,0.3
		c0,0-1.1,0.6-1.3,0.7C5.3,25.4,4,26.8,3.7,28c-0.1,0.4,0,0.8,0.3,1l0.6,0.3c0.3,0.1,0.5,0.2,0.8,0.2c1.5,0,3.2-1.8,5.5-5.9
		c2.7-0.9,5.8-1.6,8.5-2c2.1,1.2,4.6,2,6.2,2c0.3,0,0.5,0,0.7-0.1c0.3-0.1,0.6-0.3,0.7-0.5c0.3-0.5,0.4-1.1,0.3-1.8
		C27.4,20.9,27.3,20.7,27.1,20.5L27.1,20.5z M5.1,28.3c0.3-0.7,1.3-2.2,2.9-3.5c0.1-0.1,0.3-0.3,0.6-0.5C7,27,5.9,28,5.1,28.3
		L5.1,28.3z M14.4,7c0.5,0,0.7,1.2,0.8,2.3c0,1.1-0.2,1.9-0.6,2.5c-0.3-0.9-0.4-2.2-0.4-3.1C14.2,8.6,14.2,7,14.4,7L14.4,7z
		 M11.7,22.2c0.3-0.6,0.7-1.2,1-1.9c0.9-1.6,1.4-2.9,1.8-3.9c0.8,1.5,1.8,2.7,3,3.7c0.1,0.1,0.3,0.2,0.5,0.4
		C15.5,20.9,13.5,21.5,11.7,22.2L11.7,22.2z M26.6,22.1c-0.1,0.1-0.6,0.1-0.8,0.1c-0.9,0-1.9-0.4-3.4-1c0.6,0,1.1-0.1,1.6-0.1
		c0.9,0,1.1,0,2,0.2C26.8,21.5,26.8,22,26.6,22.1L26.6,22.1z M29.2,6.9l-5-5c-1.1-1.1-3.2-2-4.8-2H2.8C1.3,0,0,1.3,0,2.8v30.1
		c0,1.5,1.3,2.8,2.8,2.8h25.6c1.5,0,2.8-1.3,2.8-2.8V11.7C31.2,10.2,30.3,8,29.2,6.9L29.2,6.9z M27.7,8.5c0.1,0.1,0.2,0.2,0.3,0.4
		h-5.7V3.2c0.2,0.1,0.3,0.2,0.4,0.3L27.7,8.5z M29,32.9c0,0.3-0.3,0.6-0.6,0.6H2.8c-0.3,0-0.6-0.3-0.6-0.6V2.8
		c0-0.3,0.3-0.6,0.6-0.6h16.7c0.2,0,0.4,0,0.6,0.1v8.9h8.9c0,0.2,0.1,0.4,0.1,0.6V32.9z M29,32.9"/>
</g>
</svg>
