<?xml version="1.0" encoding="utf-8"?>
<!-- Generator: Adobe Illustrator 17.1.0, SVG Export Plug-In . SVG Version: 6.00 Build 0)  -->
<!DOCTYPE svg PUBLIC "-//W3C//DTD SVG 1.1//EN" "http://www.w3.org/Graphics/SVG/1.1/DTD/svg11.dtd">
<svg version="1.1" id="Слой_1" xmlns="http://www.w3.org/2000/svg" xmlns:xlink="http://www.w3.org/1999/xlink" x="0px" y="0px"
	 viewBox="0 0 23.9 23.9" enable-background="new 0 0 23.9 23.9" xml:space="preserve">
<g>
	<path fill="#00A13A" d="M12,1.5c5.8,0,10.5,4.7,10.5,10.5S17.7,22.4,12,22.4S1.5,17.7,1.5,12S6.2,1.5,12,1.5 M12,0
		C5.4,0,0,5.4,0,12c0,6.6,5.4,12,12,12c6.6,0,12-5.4,12-12C23.9,5.4,18.6,0,12,0L12,0z M18.6,16l-0.1-0.2c-0.2-0.5-0.7-1-1.2-1.1
		l-1.8-0.5c-0.5-0.1-1.2,0-1.5,0.4l-0.6,0.6c-2.3-0.6-4.1-2.5-4.8-4.8l0.6-0.6c0.4-0.4,0.5-1,0.4-1.5L9.3,6.5C9.1,6,8.6,5.5,8.2,5.4
		L8,5.3c-0.5-0.2-1.1,0-1.5,0.4l-1,1C5.3,6.8,5.2,7.3,5.2,7.3c0,3,1.2,6,3.3,8.1c2.1,2.1,5.1,3.3,8.1,3.3c0,0,0.5-0.1,0.7-0.3l1-1
		C18.6,17.1,18.8,16.4,18.6,16L18.6,16z M18.6,16"/>
</g>
</svg>
