<?xml version="1.0" encoding="utf-8"?>
<!-- Generator: Adobe Illustrator 17.1.0, SVG Export Plug-In . SVG Version: 6.00 Build 0)  -->
<!DOCTYPE svg PUBLIC "-//W3C//DTD SVG 1.1//EN" "http://www.w3.org/Graphics/SVG/1.1/DTD/svg11.dtd">
<svg version="1.1" id="Слой_1" xmlns="http://www.w3.org/2000/svg" xmlns:xlink="http://www.w3.org/1999/xlink" x="0px" y="0px"
	 viewBox="0 0 28.1 28.1" enable-background="new 0 0 28.1 28.1" xml:space="preserve">
<g>
	<path fill="#455A64" d="M18.4,0c-5.3,0-9.7,4.3-9.7,9.7c0,2.2,0.7,4.2,2,5.8l-2,2c0,0,0,0,0,0c-0.2,0-0.3-0.1-0.5-0.1
		c-0.6,0-1.2,0.2-1.7,0.7L0.7,24C0.2,24.4,0,25,0,25.7c0,0.6,0.2,1.2,0.7,1.7c0.5,0.5,1.1,0.7,1.7,0.7c0.6,0,1.2-0.2,1.7-0.7
		l5.8-5.8c0.5-0.5,0.7-1.1,0.7-1.7c0-0.2,0-0.3-0.1-0.5c0,0,0,0,0,0l2-2c1.6,1.2,3.7,2,5.8,2c5.3,0,9.7-4.3,9.7-9.7
		C28.1,4.3,23.7,0,18.4,0L18.4,0z M3.4,26.7c-0.3,0.3-0.7,0.4-1.1,0.4c-0.4,0-0.8-0.2-1.1-0.4c-0.3-0.3-0.4-0.7-0.4-1.1
		c0-0.4,0.2-0.8,0.4-1.1l5.3-5.3l2.1,2.1L3.4,26.7z M9.3,20.8l-2.1-2.1c0.3-0.2,0.6-0.4,1-0.4c0.4,0,0.8,0.1,1.1,0.4
		c0.3,0.3,0.4,0.7,0.4,1.1C9.7,20.2,9.6,20.6,9.3,20.8L9.3,20.8z M10.2,18.5c-0.1-0.1-0.2-0.2-0.3-0.3c-0.1-0.1-0.2-0.2-0.3-0.3
		l1.7-1.7c0.2,0.2,0.4,0.4,0.6,0.6L10.2,18.5z M18.4,18.4c-4.8,0-8.8-3.9-8.8-8.8c0-4.8,3.9-8.8,8.8-8.8s8.8,3.9,8.8,8.8
		C27.2,14.5,23.2,18.4,18.4,18.4L18.4,18.4z M18.4,18.4"/>
	<path fill="#455A64" d="M18.4,1.9c-4.3,0-7.7,3.5-7.7,7.7c0,4.3,3.5,7.7,7.7,7.7s7.7-3.5,7.7-7.7C26.1,5.4,22.7,1.9,18.4,1.9
		L18.4,1.9z M18.4,16.5c-3.8,0-6.8-3.1-6.8-6.8c0-3.8,3.1-6.8,6.8-6.8s6.8,3.1,6.8,6.8C25.2,13.4,22.2,16.5,18.4,16.5L18.4,16.5z
		 M18.4,16.5"/>
	<path fill="#455A64" d="M21.6,4.8c-0.2-0.1-0.5-0.1-0.6,0.1c-0.1,0.2-0.1,0.5,0.1,0.6c1.4,0.9,2.2,2.4,2.2,4.1
		c0,1.1-0.4,2.2-1.1,3.1C22,13,22,13.3,22.2,13.4c0.1,0.1,0.2,0.1,0.3,0.1c0.1,0,0.3-0.1,0.4-0.2c0.9-1,1.3-2.3,1.3-3.7
		C24.2,7.7,23.2,5.9,21.6,4.8L21.6,4.8z M21.6,4.8"/>
	<path fill="#455A64" d="M19.5,4c-0.3-0.1-0.7-0.1-1.1-0.1c-0.3,0-0.5,0.2-0.5,0.5c0,0.3,0.2,0.5,0.5,0.5c0.3,0,0.6,0,0.9,0.1
		c0,0,0.1,0,0.1,0c0.2,0,0.4-0.2,0.4-0.4C19.9,4.3,19.7,4,19.5,4L19.5,4z M19.5,4"/>
</g>
</svg>
