<?xml version="1.0" encoding="utf-8"?>
<!-- Generator: Adobe Illustrator 17.1.0, SVG Export Plug-In . SVG Version: 6.00 Build 0)  -->
<!DOCTYPE svg PUBLIC "-//W3C//DTD SVG 1.1//EN" "http://www.w3.org/Graphics/SVG/1.1/DTD/svg11.dtd">
<svg version="1.1" id="Слой_1" xmlns="http://www.w3.org/2000/svg" xmlns:xlink="http://www.w3.org/1999/xlink" x="0px" y="0px"
	 viewBox="0 0 91.3 91.3" enable-background="new 0 0 91.3 91.3" xml:space="preserve">
<path fill="#00A13A" d="M91.3,45.6c0,25.2-20.4,45.6-45.6,45.6C20.4,91.3,0,70.8,0,45.6C0,20.4,20.4,0,45.6,0
	C70.8,0,91.3,20.4,91.3,45.6L91.3,45.6z M91.3,45.6"/>
<path fill="#FFFFFF" d="M68.5,53.9c0,0.5-0.2,0.9-0.5,1.2c-0.7,0.7-1.8,0.7-2.5,0L45.6,35.3L25.8,55.1c-0.7,0.7-1.8,0.7-2.5,0
	c-0.7-0.7-0.7-1.8,0-2.5l20.2-20.2c1.2-1.2,3.1-1.2,4.2,0l20.2,20.2C68.3,53,68.5,53.4,68.5,53.9L68.5,53.9z M68.5,53.9"/>
</svg>
