<?xml version="1.0" encoding="utf-8"?>
<!-- Generator: Adobe Illustrator 17.1.0, SVG Export Plug-In . SVG Version: 6.00 Build 0)  -->
<!DOCTYPE svg PUBLIC "-//W3C//DTD SVG 1.1//EN" "http://www.w3.org/Graphics/SVG/1.1/DTD/svg11.dtd">
<svg version="1.1" id="Слой_1" xmlns="http://www.w3.org/2000/svg" xmlns:xlink="http://www.w3.org/1999/xlink" x="0px" y="0px"
	 viewBox="0 0 42.4 38" enable-background="new 0 0 42.4 38" xml:space="preserve">
<g>
	<path fill="#00A13A" d="M1.5,4.1c0-1.5,1.2-2.6,2.6-2.6h15.7c1.5,0,2.6,1.2,2.6,2.6v8.4c0,0.3,0,0.5-0.1,0.8h-3.8
		c-1.6,0-2.9,0.7-3.8,1.9H13c-0.1,0-0.3,0-0.4,0.1l-4.7,3L8,15.9c0-0.2-0.1-0.4-0.2-0.5c-0.1-0.1-0.3-0.2-0.5-0.2H4.1
		c-1.5,0-2.6-1.2-2.6-2.6V4.1L1.5,4.1z M37.6,14.7c1.9,0,3.4,1.5,3.4,3.4v10.2c0,1.9-1.5,3.4-3.4,3.4H26.2c-0.4,0-0.7,0.3-0.7,0.7
		l-0.3,3.3l-3.7-3.8c-0.1-0.1-0.3-0.2-0.5-0.2h-2.4c-1.9,0-3.4-1.5-3.4-3.4V18.1c0-1.9,1.5-3.4,3.4-3.4L37.6,14.7L37.6,14.7
		L37.6,14.7z M4.1,16.6h2.4l-0.1,3c0,0.3,0.1,0.5,0.4,0.7c0.1,0.1,0.2,0.1,0.4,0.1c0.1,0,0.3,0,0.4-0.1l5.7-3.7H14
		c-0.1,0.5-0.2,1-0.2,1.5v10.2c0,2.7,2.2,4.8,4.8,4.8h2.1l4.6,4.7c0.1,0.1,0.3,0.2,0.5,0.2c0.1,0,0.2,0,0.2,0
		c0.3-0.1,0.5-0.3,0.5-0.6l0.4-4.3h10.6c2.7,0,4.8-2.2,4.8-4.8V18.1c0-2.7-2.2-4.8-4.8-4.8H23.9c0-0.3,0.1-0.5,0.1-0.8V4.1
		C24,1.8,22.1,0,19.8,0H4.1C1.8,0,0,1.8,0,4.1v8.4C0,14.8,1.8,16.6,4.1,16.6L4.1,16.6z"/>
	<path fill="#00A13A" d="M9.5,6.5c0.4,0,0.7-0.3,0.7-0.7c0-0.5,0.2-0.9,0.5-1.3C11.1,4.2,11.6,4,12.1,4c0.9,0.1,1.6,0.8,1.6,1.6
		c0,0.6-0.3,1.3-0.8,1.6c-1,0.6-1.6,1.7-1.6,2.9c0,0.4,0.3,0.7,0.7,0.7c0.4,0,0.7-0.3,0.7-0.7c0-0.7,0.4-1.3,0.9-1.7
		c1-0.6,1.6-1.7,1.5-2.9c-0.1-1.6-1.4-2.9-3-3c-0.9-0.1-1.7,0.3-2.4,0.9c-0.6,0.6-1,1.5-1,2.3C8.8,6.2,9.1,6.5,9.5,6.5L9.5,6.5z"/>
	<path fill="#00A13A" d="M28.1,25.4c0.4,0,0.7-0.3,0.7-0.7v-6.2c0-0.4-0.3-0.7-0.7-0.7s-0.7,0.3-0.7,0.7v6.2
		C27.3,25.1,27.6,25.4,28.1,25.4L28.1,25.4z"/>
	<path fill="#00A13A" d="M28,27.2c0.4,0,0.7,0.3,0.7,0.7s-0.3,0.7-0.7,0.7c-0.4,0-0.7-0.3-0.7-0.7S27.6,27.2,28,27.2L28,27.2z"/>
	<path fill="#00A13A" d="M12,12.1c0.4,0,0.7,0.3,0.7,0.7s-0.3,0.7-0.7,0.7c-0.4,0-0.7-0.3-0.7-0.7S11.6,12.1,12,12.1L12,12.1z"/>
</g>
</svg>
