<?xml version="1.0" encoding="utf-8"?>
<!-- Generator: Adobe Illustrator 17.1.0, SVG Export Plug-In . SVG Version: 6.00 Build 0)  -->
<!DOCTYPE svg PUBLIC "-//W3C//DTD SVG 1.1//EN" "http://www.w3.org/Graphics/SVG/1.1/DTD/svg11.dtd">
<svg version="1.1" id="Слой_1" xmlns="http://www.w3.org/2000/svg" xmlns:xlink="http://www.w3.org/1999/xlink" x="0px" y="0px"
	 viewBox="0 0 25.3 14.4" enable-background="new 0 0 25.3 14.4" xml:space="preserve">
<path fill-rule="evenodd" clip-rule="evenodd" fill="#455A64" d="M12.4,14.4h1.5c0,0,0.5-0.1,0.7-0.3c0.2-0.2,0.2-0.7,0.2-0.7
	s0-2,0.9-2.3c0.9-0.3,2.1,2,3.4,2.8c1,0.7,1.7,0.5,1.7,0.5l3.4,0c0,0,1.8-0.1,0.9-1.5c-0.1-0.1-0.5-1-2.5-2.9
	c-2.1-2-1.8-1.6,0.7-5.1c1.6-2.1,2.2-3.3,2-3.9C25.1,0.5,24,0.7,24,0.7l-3.8,0c0,0-0.3,0-0.5,0.1c-0.2,0.1-0.3,0.4-0.3,0.4
	s-0.6,1.6-1.4,3c-1.7,2.9-2.4,3-2.6,2.9c-0.6-0.4-0.5-1.7-0.5-2.6c0-2.8,0.4-4-0.8-4.3C13.5,0.1,13.2,0,12.2,0C10.8,0,9.7,0,9,0.3
	C8.6,0.5,8.2,1,8.5,1c0.3,0,0.8,0.2,1.1,0.6C10,2.1,10,3.3,10,3.3S10.2,6.6,9.4,7C8.9,7.3,8.2,6.7,6.7,4.1C5.9,2.8,5.3,1.3,5.3,1.3
	S5.2,1,5,0.9C4.8,0.7,4.4,0.6,4.4,0.6l-3.6,0c0,0-0.5,0-0.7,0.3c-0.2,0.2,0,0.6,0,0.6s2.8,6.6,6,10C9,14.6,12.4,14.4,12.4,14.4
	L12.4,14.4z M12.4,14.4"/>
</svg>
