<?xml version="1.0" encoding="utf-8"?>
<!-- Generator: Adobe Illustrator 17.1.0, SVG Export Plug-In . SVG Version: 6.00 Build 0)  -->
<!DOCTYPE svg PUBLIC "-//W3C//DTD SVG 1.1//EN" "http://www.w3.org/Graphics/SVG/1.1/DTD/svg11.dtd">
<svg version="1.1" id="Слой_1" xmlns="http://www.w3.org/2000/svg" xmlns:xlink="http://www.w3.org/1999/xlink" x="0px" y="0px"
	 viewBox="0 0 31 35.4" enable-background="new 0 0 31 35.4" xml:space="preserve">
<g>
	<path fill="#455A64" d="M19.9,16.4h1.5l-1.8,7.8l-2.3-11h-3.7l-2.7,11l-2-11H5.2L9.1,31h3.8l2.6-10.5L17.8,31h3.5l4.5-17.7h-5.9
		L19.9,16.4L19.9,16.4z M29,6.9L24.1,2c-1.1-1.1-3.2-2-4.7-2H2.8C1.2,0,0,1.2,0,2.8v29.9c0,1.5,1.2,2.8,2.8,2.8h25.4
		c1.5,0,2.8-1.2,2.8-2.8v-21C31,10.1,30.1,8,29,6.9L29,6.9z M27.4,8.5c0.1,0.1,0.2,0.2,0.3,0.4h-5.6V3.2c0.1,0.1,0.3,0.2,0.4,0.3
		L27.4,8.5z M28.8,32.6c0,0.3-0.3,0.6-0.6,0.6H2.8c-0.3,0-0.6-0.3-0.6-0.6V2.8c0-0.3,0.3-0.6,0.6-0.6h16.6c0.2,0,0.4,0,0.6,0.1v8.8
		h8.8c0,0.2,0.1,0.4,0.1,0.6V32.6z M28.8,32.6"/>
</g>
</svg>
