<?xml version="1.0" encoding="utf-8"?>
<!-- Generator: Adobe Illustrator 17.1.0, SVG Export Plug-In . SVG Version: 6.00 Build 0)  -->
<!DOCTYPE svg PUBLIC "-//W3C//DTD SVG 1.1//EN" "http://www.w3.org/Graphics/SVG/1.1/DTD/svg11.dtd">
<svg version="1.1" id="Слой_1" xmlns="http://www.w3.org/2000/svg" xmlns:xlink="http://www.w3.org/1999/xlink" x="0px" y="0px"
	 viewBox="0 0 85.4 84.7" enable-background="new 0 0 85.4 84.7" xml:space="preserve">
<path fill="#00A13A" stroke="#00A13A" stroke-miterlimit="10" d="M78.6,65.1l-8.5-8.5c-0.5-0.5-1.3-0.5-1.9,0L57.3,67.5
	c-0.5,0.5-0.5,1.3,0,1.9l8.5,8.5L62.7,81L52.6,70.9l0.9-9.8l1.7-1.7l5-5l0,0l1.7-1.7l9.8-0.9L81.7,62L78.6,65.1L78.6,65.1z
	 M32.2,58.5l-1.6-1.6l-3.5-3.5c0,0,0,0,0,0c0,0,0,0,0,0L23.6,50L22,48.4l4.4-1.9l1.9,1.9l4,4l1.9,1.9L32.2,58.5L32.2,58.5z M13,77.1
	l-9.5-9.5l1.2-2.1l5.2,5.2l5.2,5.2L13,77.1L13,77.1z M19.7,49.8l1.1,1.1L7.3,64.5l-1.1-1.1L19.7,49.8L19.7,49.8z M10.8,67.9
	l-1.6-1.6l13.6-13.6l1.6,1.6L10.8,67.9L10.8,67.9z M14.2,71.4l-1.6-1.6l13.6-13.6l1.6,1.6L14.2,71.4L14.2,71.4z M17.2,74.4l-1.1-1.1
	l13.6-13.6l1.1,1.1L17.2,74.4L17.2,74.4z M24.3,31.9l-9.8,0.9L4.4,22.7l3.1-3.1l8.5,8.5c0.5,0.5,1.3,0.5,1.9,0l10.9-10.9
	c0.5-0.5,0.5-1.3,0-1.9l-8.5-8.5l3.1-3.1l10.1,10.1l-0.9,9.8l-1.7,1.7l-5,5L24.3,31.9L24.3,31.9z M61.8,10.7l9.9-4.5l2.7,2.7
	l-4.5,9.9l-7.4,7.4l-2.1-2.1l-4-4l-2.1-2.1L61.8,10.7L61.8,10.7z M57.6,25.1L45.1,37.6L43,35.5l12.5-12.5L57.6,25.1L57.6,25.1z
	 M31,47.4l5.1-5.1l2.1,2.1l-5.1,5.1L31,47.4L31,47.4z M54.2,56.6L41.1,43.5l0,0l0,0l-4-4l-8.3-8.3l3.1-3.1l8.3,8.3l4,4h0l13.2,13.2
	L54.2,56.6L54.2,56.6z M84.5,61.1L73.1,49.6c-0.3-0.3-0.7-0.4-1.1-0.4l-10.9,1c-0.3,0-0.6,0.2-0.8,0.4l-1.1,1.1L47,39.4l12.5-12.5
	l2.1,2.1c0.3,0.3,0.6,0.4,0.9,0.4c0.3,0,0.7-0.1,0.9-0.4l8.5-8.5c0.1-0.1,0.2-0.2,0.3-0.4l5-10.9c0.2-0.5,0.1-1.1-0.3-1.5l-4-4
	c-0.4-0.4-1-0.5-1.5-0.3l-10.9,5c-0.1,0.1-0.3,0.2-0.4,0.3l-8.5,8.5c-0.5,0.5-0.5,1.3,0,1.9l2.1,2.1L41.1,33.6l-7.4-7.4l1.1-1.1
	c0.2-0.2,0.4-0.5,0.4-0.8l1-10.9c0-0.4-0.1-0.8-0.4-1.1L24.3,0.9c-0.5-0.5-1.3-0.5-1.9,0l-5,5c-0.5,0.5-0.5,1.3,0,1.9l8.5,8.5
	l-9.1,9.1l-8.5-8.5c-0.5-0.5-1.3-0.5-1.9,0l-5,5c-0.5,0.5-0.5,1.3,0,1.9L13,35.1c0.2,0.2,0.6,0.4,0.9,0.4c0,0,0.1,0,0.1,0l10.9-1
	c0.3,0,0.6-0.2,0.8-0.4l1.1-1.1l7.4,7.4l-5.1,5.1L27.6,44c-0.4-0.4-1-0.5-1.5-0.3l-6.9,3c0,0,0,0,0,0l0,0c0,0,0,0,0,0
	c0,0-0.1,0-0.1,0c0,0,0,0,0,0c0,0,0,0-0.1,0c0,0,0,0-0.1,0c0,0,0,0,0,0c0,0,0,0-0.1,0.1c0,0,0,0,0,0l0,0c0,0,0,0,0,0L3.4,62.4
	c0,0,0,0,0,0l0,0c0,0,0,0,0,0c0,0,0,0-0.1,0.1c0,0,0,0,0,0.1c0,0,0,0,0,0.1c0,0,0,0,0,0.1c0,0,0,0,0,0l0,0l0,0l-2.5,4.4
	c-0.3,0.5-0.2,1.2,0.2,1.6l10.9,10.9c0.3,0.3,0.6,0.4,0.9,0.4c0.2,0,0.4-0.1,0.6-0.2l4.5-2.5c0,0,0,0,0,0c0,0,0,0,0.1,0
	c0,0,0,0,0.1,0c0,0,0,0,0,0c0,0,0,0,0.1-0.1c0,0,0,0,0,0l0,0l0,0l15.4-15.4c0,0,0,0,0-0.1c0,0,0,0,0,0c0,0,0,0,0,0
	c0,0,0.1-0.1,0.1-0.1c0,0,0,0,0,0c0,0,0.1-0.1,0.1-0.1c0,0,0,0,0,0l0,0c0,0,0,0,0,0l3-6.9c0.2-0.5,0.1-1.1-0.3-1.5L35,51.4l5.1-5.1
	l12.2,12.2l-1.1,1.1c-0.2,0.2-0.4,0.5-0.4,0.8l-1,10.9c0,0.4,0.1,0.8,0.4,1.1l11.4,11.4c0.3,0.3,0.6,0.4,0.9,0.4
	c0.3,0,0.7-0.1,0.9-0.4l5-5c0.5-0.5,0.5-1.3,0-1.9l-8.5-8.5l9.1-9.1l8.5,8.5c0.5,0.5,1.3,0.5,1.9,0l5-5C85,62.4,85,61.6,84.5,61.1
	L84.5,61.1z"/>
</svg>
