<?xml version="1.0" encoding="utf-8"?>
<!-- Generator: Adobe Illustrator 17.1.0, SVG Export Plug-In . SVG Version: 6.00 Build 0)  -->
<!DOCTYPE svg PUBLIC "-//W3C//DTD SVG 1.1//EN" "http://www.w3.org/Graphics/SVG/1.1/DTD/svg11.dtd">
<svg version="1.1" id="Слой_1" xmlns="http://www.w3.org/2000/svg" xmlns:xlink="http://www.w3.org/1999/xlink" x="0px" y="0px"
	 viewBox="0 0 805.5 178.9" enable-background="new 0 0 805.5 178.9" xml:space="preserve">
<g>
	<path opacity="0.1" fill-rule="evenodd" clip-rule="evenodd" fill="#153A44" d="M100.5,45.5c280.9,0,366.5,0,686.3,0
		c10.3,0,18.7,8.4,18.7,18.7v57.6c0,10.3-8.4,18.7-18.7,18.7H100.5c-10.3,0-18.7-8.4-18.7-18.7V64.2C81.8,53.9,90.3,45.5,100.5,45.5
		"/>
	<path opacity="0.1" fill-rule="evenodd" clip-rule="evenodd" fill="#153A44" d="M89.4,4c47,0,85.4,38.3,85.4,85.4
		c0,47-38.3,85.4-85.4,85.4c-47,0-85.4-38.3-85.4-85.4C4,42.4,42.4,4,89.4,4z"/>
	<path opacity="0.1" fill="#FEFEFE" d="M89.4,178.8C40.1,178.8,0,138.7,0,89.4C0,40.1,40.1,0,89.4,0s89.4,40.1,89.4,89.4
		C178.8,138.7,138.7,178.8,89.4,178.8z M89.4,8C44.5,8,8,44.5,8,89.4c0,44.9,36.5,81.4,81.4,81.4s81.4-36.5,81.4-81.4
		C170.7,44.5,134.2,8,89.4,8z"/>
	<path opacity="0.1" fill-rule="evenodd" clip-rule="evenodd" fill="#FEFEFE" d="M34.5,129.5c2.8-2,12.6-8,16.4-10.3
		c3.8-2.3,3.7-2.6,6-3.2c2.3-0.6,6.8-1.1,8.5-1.2c1.7-0.2,1.8,0.4,0.5,0.9c-1.3,0.5-5,0.9-7.3,1.5c-2.3,0.6-2.4,0.7-5.7,3
		c-3.3,2.3-12.5,7-15.4,8.6c-2.9,1.7-1.5,1.5-2,1.6C34.8,130.6,31.6,131.5,34.5,129.5 M26.3,135.3c1.4-0.3,2.5-0.8,4.5-1.4
		c1.4-0.4,3.8-1.1,5.5-1.9c4.2-2,10.8-6.5,15.1-8.7c4.3-2.2,7.6-3.6,10.6-4.7c3-1.1,4.5-1.3,6.1-1.7c1.6-0.4,2.4-0.1,3.7-0.3
		c1.2-0.3,3.5,0.1,5-0.5c1.6-0.6,2.6-3.3,4-4.1c1.4-0.8,1.9-1.3,4.1-0.9c2.2,0.3,8.6,1.4,14.1-0.8c5.5-2.2,7.5-4.9,10.5-6.7
		c3-1.8,5-2.2,7.9-3.3c2.9-1.1,7.6-3.2,9.9-5.3c2.3-2.1,3.2-0.7,4.8-1c6.5-0.9,5.6-2.6,7.5-2.8c1.8-0.2,3.5,0,5.3,0
		c7.8-0.2,14.1-0.4,22.1,0.1c5.6,0.3,8-1.7,1.8-1.6c-6.2,0.1-21.9-1.6-28.5-2.4c-6.6-0.8-5.2-2.6-7.6-2.9c-2.4-0.3-4.5-0.1-7,1
		c-2.5,1.1-2,4.4-4.1,6.1c-2.1,1.7-4.5,3.1-8,3.8c-3.5,0.7-8.5-0.1-11.2-0.9c-2.7-0.9-3.3-2-3.7-3.6c-0.3-1.6,0.4-4-0.9-6
		c-1.3-2.1-1.7-2.2-1.9-4.8c-0.2-2.6,0.4-7.2,0.9-10.4c0.5-3.2,2-4.3,1.7-8.4c-0.3-4.1-1.9-9.5-2.3-15.1c-0.3-3.8-0.7-9-0.6-13.1
		c0-1.9-0.1-3.8,0.3-4.9c1-3.2-0.9-2.8-1.6-1.1c-0.4,1-1.1,2.9-1.3,4.9c-0.2,1.5-0.1,3.1-0.1,4c0,2.2-0.3,4.2-1.1,2.5
		c-0.8-1.7-0.8-4.7-0.8-7.2c0-2.5,1-6,0.6-7.6c-0.4-1.6-1.4-1.6-2.3,0.3c-0.9,1.8-2.3,6.4-2.5,9.5c-0.2,3.1,1.4,7,1.4,8.8
		c0,0.9,0,2.6-0.6,2.9c-0.4,0.2-0.5-0.6-1.1-1.5c-0.6-0.9-0.9-2.6-1.5-4.4c-0.6-1.8-1.4-3.8-1.9-5.3c-0.9-2.9-2.1-3.6-3-1.5
		c-0.9,2.1-1.1,7.6-0.8,9.9c0.3,2.3,0.3,3.2,0.4,3.9c0.1,0.8-0.7,2.2-1.7-0.1c-0.9-2.3-2.4-9.3-2.6-12.9c-0.2-3.6-0.9-5.1-2.4-2.3
		c-1.5,2.8-1.8,7.1-2.2,10.4c-0.4,3.3,0.6,7.3,0.8,9.1c0.1,0.5,0.5,1.8,0.4,2.6c-0.2,1.1-1,1.6-2-0.3c-0.6-1.2-0.7-4.1-1.2-5.9
		c-0.5-1.7-0.9-3.8-1.9-5.3c-1.1-1.5-1.9-0.2-2.6,1.9c-0.5,1.4-0.2,4.7-0.8,7.4c-0.3,1.5-1.2,2.5-1.3,3.7c-0.2,3.3,0.7,6.7,1.4,8.8
		c0.8,2.1,2.4,2.2,3,3c0.6,0.8,1,2.4-0.3,2c-1.4-0.4-4.1-3.4-5.9-3.9c-1.8-0.5-3.6-1.3-4.2,0.2c-0.6,1.5,0.8,3.5,2.2,4.9
		c1.4,1.4,5,2.1,6,3.1c1,1-0.3,1.2-1.3,1.3c-1,0.1-3-0.8-4.1-0.7c-1.1,0.1-2,0.5-2,1.4c0,0.9,0.8,2.2,1.9,2.6
		c1.2,0.4,3.3-0.5,4.2-0.2c1,0.3,1.9,1.1,0.6,1.6c-1.3,0.5-5.4-0.1-6.9,0.1c-1.5,0.2-1.5,0.6-2,0.9c-0.5,0.3,0.2,0.5,0.8,0.6
		c0.5,0.1,2-0.7,2.4,0.2c0.3,0.9-1.3,2-1,3.4c0.3,1.4,2.2,3.3,2.6,4.4c0.4,1.1-1,0.9-0.5,1.9c0.5,1,2.2,2.7,3.2,3.4
		c1,0.7,1.8,0,2.4,0.4c0.6,0.4,0.8,1,0.9,1.8c0.1,0.8-1.1,1.7-0.4,2.9c0.7,1.1,2.5,2.3,3.1,3.2c0.6,0.9,1.6,0.7-0.3,1
		c-2,0.3-8.3,0.4-10.3,0.7c-2,0.3-0.1,0.9-1.3,1.1c-1.2,0.2-4.4-0.2-5.6,0.2c-1.2,0.3-0.9,0.6-1,1.5c-0.1,0.9,1.2,1.4,2.8,1.6
		c1.5,0.2,1.4,0.5,0.8,1.1c-0.5,0.6-2.6,0.9-3.1,1.5c-0.5,0.7-0.5,1.5,0.6,1.6c0.5,0,0.6,0.3,1.3,0.1c0.9-0.2,2.5-0.7,3.6-0.8
		c1.9-0.2,4.3-0.3,6.3-0.3c2-0.1,4.4-0.9,5.6-0.6c1.2,0.3,2,1.3,0.2,1.9c-1.8,0.6-6.9,1-9.3,1.3c-2.4,0.3-1.6-0.9-4.6,0.8
		c-1,0.6-1.6,1.4-3.1,2.5c-2.8,2.2-7.3,4.9-10,6.7c-4.1,2.8-7.3,5.2-10.3,6.8c-3,1.6-5.7,1.6-6.9,2.5c-1.2,0.9-2.7,2.1-1.7,2.8
		C22.9,135.9,23.9,135.9,26.3,135.3z"/>
	<path opacity="0.1" fill-rule="evenodd" clip-rule="evenodd" fill="#FEFEFE" d="M765.6,90h-14.8c-6.2,0-8-2.4-8-7.2
		c0-4.2,1.8-6.6,8-6.6h14.8V90z M776.7,119.2V66.9H752c-17.2,0-20.7,9.3-20.7,15.9c0,5.2,1.6,11.6,8.4,14c-6.1,1.6-8.9,7.7-9,14.5
		l-0.1,7.9h11.8v-7.5c0-7.4,4.5-12.4,14.4-12.4h8.9v19.8H776.7z M720.7,119.2V66.9h-39v28.6c0,10.5-4.4,14.4-6.4,14.4h-2.4v9.3h2.4
		c8.6,0,17-6.3,17-23.8V76.2h17.2v43H720.7z M655.7,103.4c0,3.8-2,6.4-8.1,6.4h-15.1V97.7h15.4C652.8,97.7,655.7,99.5,655.7,103.4z
		 M655.6,81.9c0,3.8-1.3,6.4-8,6.4h-15.1V76.2h15.4C654,76.2,655.6,78,655.6,81.9z M667.9,105.3c0-5.8-2.6-10-7.6-12.2
		c4.4-1.9,7.6-7.1,7.6-12.5c0-7.9-4.6-13.7-17-13.7h-29.6v52.3h29C663.5,119.2,667.9,114.1,667.9,105.3z M601.1,93.1
		c0,12.1-4.2,17.7-13.5,17.7c-9.4,0-13.7-5.6-13.7-17.8c0-12.8,4.6-17.6,13.7-17.6C597,75.4,601.1,80.9,601.1,93.1z M613.4,93.8
		c0-18-7.6-27.3-25.8-27.3c-18,0-25.8,8.8-25.8,26.8c0,16.4,8.5,26.2,26.6,26.2C605.2,119.5,613.4,110,613.4,93.8z M545.2,83.5
		c0,5.4-1.8,8.1-8.2,8.1h-15.1V76.2h15.4C543.7,76.2,545.2,78.8,545.2,83.5z M557.4,83.9c0-8.4-3.4-17-20.6-17h-26.1v52.3h11.1
		v-18.3h17.9C552.8,100.9,557.4,92.8,557.4,83.9z M470.2,119.2V66.9h-11.1v52.3H470.2z M505.2,66.9h-14.6l-20,25.8l18.9,26.5h14.7
		l-20.8-26.5L505.2,66.9z M413.9,97.7h-16.6l8.2-21.5L413.9,97.7z M433.8,119.2l-21.7-52.3h-12.8l-21.7,52.3h11.5l4.9-12.2h22.8
		l4.9,12.2H433.8z M337,119.2h35V66.9h-11.1v43h-12.4v-43H337v43c-11.1,0-12.9-2.2-12.9-13.7V66.9H313v29.3
		C313,112.6,316.8,119.2,337,119.2z M287.3,97.7h-16.6l8.2-21.5L287.3,97.7z M307.2,119.2l-21.7-52.3h-12.8l-21.7,52.3h11.5
		l4.9-12.2h22.8l4.9,12.2H307.2z M235.7,103.4c0,3.8-2,6.4-8.1,6.4h-15.1V97.7h15.4C232.8,97.7,235.7,99.5,235.7,103.4z M235.6,81.9
		c0,3.8-1.3,6.4-8,6.4h-15.1V76.2h15.4C234,76.2,235.6,78,235.6,81.9z M247.9,105.3c0-5.8-2.6-10-7.6-12.2c4.4-1.9,7.6-7.1,7.6-12.5
		c0-7.9-4.6-13.7-17-13.7h-29.6v52.3h29C243.5,119.2,247.9,114.1,247.9,105.3z"/>
	<path opacity="0.1" fill-rule="evenodd" clip-rule="evenodd" fill="#FEFEFE" d="M751.7,175h3.3v-19.7h0.1l7.5,19.7h3.2l7.6-19.7
		h0.1V175h3.3v-22.8h-5.4l-7,19l-7.2-19h-5.4V175z M726.8,163.6c0-4.6,2.5-9,7.5-8.9c5,0,7.5,4.3,7.5,8.9c0,4.5-2.3,8.9-7.5,8.9
		C729.1,172.5,726.8,168.1,726.8,163.6z M723.4,163.6c0,6.9,4,11.8,11,11.8c7,0,11-4.9,11-11.8c0-6.8-4.1-11.8-11-11.8
		C727.4,151.8,723.4,156.8,723.4,163.6z M714,172.1h-8.4c0.8-0.9,1.1-2.4,1.1-4v-13.1h7.3V172.1z M700.6,172.1v6.8h3.3V175h11.5v3.9
		h3.3v-6.8h-1.5v-19.9h-13.7v15.7c0,2.2-0.5,3.7-2.1,4.2H700.6z M672.4,145.3c0.3,2.8,2.2,4.4,5,4.4c2.8,0,4.7-1.6,5-4.4h-1.6
		c-0.4,1.8-1.7,2.6-3.4,2.6c-1.8,0-3.1-0.7-3.4-2.6H672.4z M686.3,175v-22.8h-4.4l-10.1,18.4h-0.1v-18.4h-3.3V175h4.2l10.3-18.8h0.1
		V175H686.3z M661,175v-22.8h-4.4l-10.1,18.4h-0.1v-18.4h-3.3V175h4.2l10.3-18.8h0.1V175H661z M627.9,175h3.3v-19.9h7.1v-2.9h-17.5
		v2.9h7.1V175z M603.7,175h12.8v-2.9H607v-7.5h8.7v-2.9H607v-6.7h9.5v-2.9h-12.8V175z M586.7,155.1h2.8c2.5,0,5,1,5,3.9
		c0,3-2.5,4-4.6,4h-3.2V155.1z M583.5,175h3.3v-9.1h3.2c4.1,0,8.1-1.8,8.1-6.9c0-5.2-3.9-6.8-8.6-6.8h-6V175z M568.3,175h3.3v-19.9
		h7.1v-2.9h-17.5v2.9h7.1V175z M533.3,145.3c0.3,2.8,2.2,4.4,5,4.4c2.8,0,4.7-1.6,5-4.4h-1.6c-0.4,1.8-1.7,2.6-3.4,2.6
		c-1.8,0-3.1-0.7-3.4-2.6H533.3z M547.2,175v-22.8h-4.4l-10.1,18.4h-0.1v-18.4h-3.3V175h4.2l10.3-18.8h0.1V175H547.2z M522,175
		v-22.8h-4.4l-10.1,18.4h-0.1v-18.4h-3.3V175h4.2l10.3-18.8h0.1V175H522z M479,175h3.3v-10.4h10.9V175h3.3v-22.8h-3.3v9.5h-10.9
		v-9.5H479V175z M467,166.6h-9.1l4.5-11.3L467,166.6z M451.1,175h3.4l2.3-5.8H468l2.3,5.8h3.6l-9.6-22.8h-3.4L451.1,175z M428.5,175
		h3.3v-19.9h10.9V175h3.3v-22.8h-17.5V175z M395.8,175h3.3v-19.7h0.1l7.5,19.7h3.2l7.6-19.7h0.1V175h3.3v-22.8h-5.4l-7,19l-7.2-19
		h-5.4V175z M370.9,163.6c0-4.6,2.5-9,7.5-8.9c5,0,7.5,4.3,7.5,8.9c0,4.5-2.3,8.9-7.5,8.9C373.2,172.5,370.9,168.1,370.9,163.6z
		 M367.5,163.6c0,6.9,4,11.8,11,11.8c7,0,11-4.9,11-11.8c0-6.8-4.1-11.8-11-11.8C371.5,151.8,367.5,156.8,367.5,163.6z M347,175h3.3
		v-11.2l10.2,11.2h4.8l-11.6-12l10.7-10.8H360l-9.7,10v-10H347V175z M326,166.6h-9.1l4.5-11.3L326,166.6z M310.1,175h3.4l2.3-5.8
		H327l2.3,5.8h3.6l-9.6-22.8h-3.4L310.1,175z M287.5,175h3.3v-19.9h10.9V175h3.3v-22.8h-17.5V175z M262.2,175h3.3v-19.9h10.9V175
		h3.3v-22.8h-17.5V175z M245.8,169.2l-3,5.8h3.5l11-22.8h-3.5l-6.5,13.9l-7.9-13.9h-3.9L245.8,169.2z M222.4,155.1h2.8
		c2.5,0,5,1,5,3.9c0,3-2.6,4-4.6,4h-3.2V155.1z M219.1,175h3.3v-9.1h3.2c4.1,0,8.1-1.8,8.1-6.9c0-5.2-3.9-6.8-8.6-6.8h-6V175z
		 M201.2,175h3.3v-19.9h9.5v-2.9h-12.8V175z"/>
</g>
</svg>
