<?xml version="1.0" encoding="utf-8"?>
<!-- Generator: Adobe Illustrator 17.1.0, SVG Export Plug-In . SVG Version: 6.00 Build 0)  -->
<!DOCTYPE svg PUBLIC "-//W3C//DTD SVG 1.1//EN" "http://www.w3.org/Graphics/SVG/1.1/DTD/svg11.dtd">
<svg version="1.1" id="Слой_1" xmlns="http://www.w3.org/2000/svg" xmlns:xlink="http://www.w3.org/1999/xlink" x="0px" y="0px"
	 viewBox="0 0 346.4 300" enable-background="new 0 0 346.4 300" xml:space="preserve">
<path opacity="5.000000e-002" fill="#78909C" d="M346.4,0v1h-41.6l39.7,68.7c0.6-0.2,1.2-0.3,1.9-0.3V73v4v3.6
	c-0.7,0-1.3-0.1-1.9-0.3L304.8,149h41.6v2h-41.6l37.5,64.9c1.3-0.6,2.6-0.9,4.1-0.9v8v1v2v1v8c-1.5,0-2.9-0.3-4.1-0.9L304.8,299
	h41.6v1h-42.1H302h-70.6h-13.7h-2.3h-13.6h-66.3h-4.3h-2.3h-4.5H44.5h-2.3H0v-1h41.6L4.1,234.1C2.9,234.7,1.5,235,0,235v-8v-4v-8
	c1.5,0,2.9,0.3,4.1,0.9L41.6,151H0v-2h41.6L1.9,80.3c-0.6,0.2-1.2,0.3-1.9,0.3V77v-1v-2v-1v-3.6c0.7,0,1.3,0.1,1.9,0.3L41.6,1H0V0
	h42.1h2.3h79.8h4.5h2.3h4.3h66.3h13.6h2.3h13.7H302h2.3H346.4z M231.4,1c-0.3,4.7-2.8,8.9-6.6,11.3l35,60.7l41.6-72H231.4z
	 M223,286.7l33.1-57.4c-1.2-1-2-2.6-2-4.3c0-1.7,0.8-3.2,2-4.3l-35.6-61.6c-1.2,0.6-2.6,0.9-4.1,0.9c-1.5,0-2.9-0.3-4.1-0.9
	L174.4,225l35.6,61.7c2-1,4.2-1.5,6.6-1.5C218.9,285.2,221.1,285.7,223,286.7z M129.8,294.4c0.7,0,1.3,0.1,2,0.4l40.3-69.8
	l-35.6-61.7c-2,1-4.2,1.6-6.6,1.6c-2.3,0-4.5-0.5-6.5-1.5L87.8,225l40.2,69.7C128.6,294.5,129.2,294.4,129.8,294.4z M86.6,223
	l35-60.6c-3.7-2.5-6.3-6.6-6.6-11.4H45L86.6,223z M128,5.3L92.4,66.9c2.5,1.8,4.2,4.8,4.2,8.1c0,3.3-1.6,6.3-4.2,8.1l30.9,53.5
	c2-0.9,4.1-1.5,6.5-1.5c2.4,0,4.6,0.6,6.6,1.6L172.1,75L131.8,5.2c-0.6,0.2-1.3,0.4-2,0.4C129.2,5.6,128.6,5.5,128,5.3z M216.6,14.8
	c-2.4,0-4.6-0.6-6.6-1.5L174.4,75l38,65.9c1.3-0.6,2.7-0.9,4.2-0.9c1.5,0,2.8,0.3,4.1,0.9l38-65.9L223,13.3
	C221.1,14.3,218.9,14.8,216.6,14.8z M173.2,77l-35.1,60.7c3.7,2.5,6.1,6.6,6.5,11.3h62c0.3-2.9,1.8-5.5,4.1-7.1L173.2,77z
	 M82.5,84.1L45,149h70c0.3-4.7,2.9-8.9,6.6-11.4L90.7,84.1c-1.3,0.6-2.6,0.9-4.1,0.9C85.1,85,83.8,84.7,82.5,84.1z M173.2,223
	l37.5-64.9c-2.2-1.6-3.8-4.2-4.1-7.1h-62c-0.3,4.7-2.8,8.8-6.5,11.3L173.2,223z M261.7,219.7l39.7-68.7h-74.9
	c-0.3,2.9-1.9,5.5-4.2,7.1l35.6,61.6c0.6-0.2,1.2-0.3,1.9-0.3C260.5,219.4,261.1,219.5,261.7,219.7z M301.4,149l-41.6-72l-37.4,64.9
	c2.3,1.6,3.9,4.2,4.1,7.1H301.4z M135.3,1c-0.2,1.3-0.9,2.4-1.8,3.2L173.2,73l35-60.7c-3.7-2.5-6.2-6.6-6.5-11.3H135.3z M45,1
	l37.5,64.9c1.3-0.6,2.6-0.9,4.1-0.9c1.5,0,2.9,0.3,4.1,0.9l35.5-61.6c-1-0.8-1.7-2-1.9-3.3H45z M3.6,70.7c1,0.8,1.6,2,1.9,3.3h71.2
	c0.3-2.9,1.8-5.5,4.1-7.1L43.3,2L3.6,70.7z M43.3,148l37.5-64.9c-2.3-1.6-3.8-4.2-4.1-7.1H5.5c-0.2,1.3-0.9,2.4-1.9,3.3L43.3,148z
	 M43.3,298l42.1-73l-42.1-73L5.8,216.9c2.5,1.8,4.2,4.8,4.2,8.1s-1.6,6.3-4.2,8.1L43.3,298z M124.3,299c0.2-1.3,0.9-2.5,1.9-3.3
	L86.6,227L45,299H124.3z M201.8,299c0.3-4.7,2.8-8.8,6.5-11.3l-35-60.7l-39.7,68.8c0.9,0.8,1.6,1.9,1.8,3.2H201.8z M301.4,299
	l-39.7-68.7c-0.6,0.2-1.2,0.3-1.9,0.3c-0.7,0-1.3-0.1-1.9-0.3l-33.1,57.4c3.7,2.5,6.2,6.6,6.6,11.3H301.4z M340.6,233.1
	c-2.3-1.6-3.8-4.2-4.1-7.1h-71.2c-0.2,1.3-0.9,2.4-1.9,3.3l39.7,68.7L340.6,233.1z M303.1,152l-39.7,68.7c1,0.8,1.6,2,1.9,3.3h71.2
	c0.3-2.9,1.8-5.5,4.1-7.1L303.1,152z M303.1,2L261,75l42.1,73l39.7-68.7c-1.2-1-2-2.6-2-4.3c0-1.7,0.8-3.2,2-4.3L303.1,2z"/>
</svg>
